<?xml version="1.0" standalone="no"?>
<!DOCTYPE svg PUBLIC "-//W3C//DTD SVG 20010904//EN"
 "http://www.w3.org/TR/2001/REC-SVG-20010904/DTD/svg10.dtd">
<svg version="1.0" xmlns="http://www.w3.org/2000/svg"
 width="3000.000000pt" height="3000.000000pt" viewBox="0 0 3000.000000 3000.000000"
 preserveAspectRatio="xMidYMid meet">
<metadata>
Created by potrace 1.11, written by Peter Selinger 2001-2013
</metadata>
<g transform="translate(0.000000,3000.000000) scale(0.100000,-0.100000)"
fill="#000000" stroke="none">
<path d="M14945 28214 c-1425 -48 -2733 -294 -4038 -760 -789 -282 -1596 -664
-2322 -1099 -2106 -1263 -3811 -3096 -4914 -5285 -1174 -2330 -1628 -4933
-1306 -7487 294 -2321 1202 -4519 2635 -6374 619 -802 1406 -1597 2205 -2230
1085 -860 2290 -1533 3605 -2014 369 -135 902 -291 1639 -480 l144 -37 56 22
c190 78 427 239 1126 765 3775 2841 10559 8142 12674 9904 1068 888 1756 1535
1908 1791 l27 45 4 285 c5 302 -9 735 -33 1060 -273 3656 -2137 7014 -5130
9240 -2008 1494 -4450 2420 -6890 2615 -405 32 -1054 50 -1390 39z m1180 -308
c448 -33 808 -75 1214 -141 2287 -375 4516 -1399 6306 -2899 511 -428 1137
-1054 1561 -1561 1463 -1750 2407 -3827 2748 -6050 90 -585 131 -1087 143
-1746 4 -260 3 -358 -5 -363 -6 -4 -80 7 -164 23 -84 17 -238 44 -343 61 -104
17 -200 33 -212 36 l-23 4 0 229 c0 401 -33 898 -90 1344 -375 2965 -1894
5676 -4260 7598 -1240 1007 -2705 1781 -4265 2254 -843 255 -1717 418 -2565
480 -986 71 -1964 25 -2925 -140 -853 -146 -1771 -411 -2558 -740 -441 -183
-976 -445 -1357 -663 -1675 -959 -3033 -2230 -4085 -3822 -1107 -1674 -1790
-3663 -1950 -5670 -29 -366 -38 -678 -32 -1100 6 -431 13 -575 48 -945 166
-1798 733 -3524 1672 -5090 112 -187 478 -737 626 -940 395 -542 937 -1152
1459 -1641 1117 -1047 2445 -1878 3887 -2432 384 -147 634 -227 1237 -392 198
-54 362 -100 365 -103 2 -3 -5 -97 -16 -209 -11 -111 -26 -274 -33 -360 -9
-117 -15 -158 -25 -158 -20 0 -549 143 -853 230 -732 211 -1328 446 -2060 812
-2466 1232 -4457 3234 -5690 5723 -716 1446 -1149 2991 -1284 4585 -35 404
-41 566 -40 1090 0 681 30 1128 115 1728 322 2285 1244 4426 2677 6221 434
543 1006 1141 1537 1606 1091 956 2375 1740 3720 2270 1345 531 2698 819 4175
889 204 9 1138 -3 1345 -18z m6142 -4538 c-420 -440 -623 -702 -666 -863 -5
-22 -17 -137 -26 -255 -191 -2563 -1034 -4544 -2600 -6115 -890 -893 -1994
-1642 -3385 -2296 l-185 -87 -11 -119 c-77 -807 -590 -1857 -1434 -2934 -1026
-1310 -2365 -2408 -3172 -2604 -143 -35 -166 -33 -225 13 -216 172 -743 886
-743 1007 0 14 36 53 108 118 146 130 466 456 585 596 430 504 699 996 831
1521 55 218 77 384 83 637 6 237 -3 385 -39 609 l-20 131 -134 83 c-512 319
-958 756 -1328 1303 -33 48 -67 87 -75 87 -39 0 -477 -74 -677 -115 -1038
-210 -1804 -547 -2427 -1066 -39 -34 -134 -120 -211 -192 l-138 -131 -57 -4
c-154 -11 -478 94 -781 254 -244 129 -464 304 -540 430 -31 51 -35 66 -35 124
0 62 4 72 69 190 299 543 619 915 1221 1418 37 32 39 34 21 45 -86 53 -132
134 -176 311 l-29 120 36 45 c275 341 679 735 1008 981 700 525 1442 826 2526
1025 147 27 930 145 962 145 3 0 65 78 139 173 925 1199 1846 2189 2763 2973
622 531 1274 984 1920 1334 163 89 466 240 480 240 2 0 -20 -33 -50 -72 -77
-101 -189 -330 -220 -448 -107 -407 -4 -792 290 -1085 227 -227 535 -371 920
-431 149 -23 449 -23 606 -1 868 126 1556 687 1685 1372 23 123 15 346 -16
460 -76 280 -246 510 -505 680 -97 64 -224 128 -323 165 l-74 27 129 22 c311
55 432 64 853 65 307 0 435 -4 575 -17 453 -45 905 -121 1328 -225 184 -45
267 -48 372 -13 155 50 336 151 770 429 104 67 191 122 193 122 2 0 -75 -82
-171 -182z m-4512 -168 c613 -50 1091 -347 1271 -790 67 -165 90 -377 60 -550
-118 -674 -806 -1231 -1660 -1345 -155 -21 -491 -16 -621 8 -193 37 -335 82
-480 154 -329 164 -547 408 -642 718 -25 84 -27 103 -27 275 -1 173 1 192 27
285 95 340 345 659 699 892 179 118 433 228 658 286 246 64 480 86 715 67z
m8095 -7940 c758 -26 1438 -106 2168 -255 122 -25 224 -45 227 -45 15 0 1 -38
-29 -79 -48 -65 -309 -319 -521 -507 -858 -759 -2638 -2204 -5305 -4305 -3797
-2991 -9646 -7479 -9747 -7479 -13 0 -14 16 -9 103 53 819 211 2005 381 2852
107 535 199 882 330 1240 760 2091 2034 3933 3714 5374 1027 880 2195 1597
3462 2124 1676 697 3537 1039 5329 977z m-15940 -1695 c23 -7 155 -168 563
-685 l78 -99 -50 -173 c-157 -544 -281 -730 -511 -767 -132 -22 -327 35 -502
145 l-37 24 -113 -62 c-620 -338 -1175 -741 -2246 -1631 -216 -180 -395 -327
-398 -327 -13 0 268 346 453 558 296 338 467 518 1315 1380 415 423 426 435
433 480 3 26 20 108 37 182 135 598 405 957 743 989 70 6 188 -1 235 -14z"/>
</g>
</svg>
